<?xml version="1.0" encoding="UTF-8" standalone="no"?>
<!-- Created with Inkscape (http://www.inkscape.org/) -->

<svg
   width="36.687424mm"
   height="36.835899mm"
   viewBox="0 0 36.687424 36.835899"
   version="1.1"
   id="svg1"
   xml:space="preserve"
   xmlns:inkscape="http://www.inkscape.org/namespaces/inkscape"
   xmlns:sodipodi="http://sodipodi.sourceforge.net/DTD/sodipodi-0.dtd"
   xmlns="http://www.w3.org/2000/svg"
   xmlns:svg="http://www.w3.org/2000/svg"><sodipodi:namedview
     id="namedview1"
     pagecolor="#ffffff"
     bordercolor="#000000"
     borderopacity="0.25"
     inkscape:showpageshadow="2"
     inkscape:pageopacity="0.0"
     inkscape:pagecheckerboard="0"
     inkscape:deskcolor="#d1d1d1"
     inkscape:document-units="mm"><inkscape:page
       x="0"
       y="0"
       width="36.687424"
       height="36.835899"
       id="page2"
       margin="0"
       bleed="0" /></sodipodi:namedview><defs
     id="defs1" /><g
     inkscape:label="Layer 1"
     inkscape:groupmode="layer"
     id="layer1"
     transform="translate(-97.543787,-127.63205)"><g
       transform="matrix(1.1575521,0,0,1.1575521,97.312616,127.60605)"
       id="g3"><path
         d="m 31.8186,26.3109 c -0.0666,-0.0444 -0.1332,-0.0667 -0.2219,-0.0444 -1.6642,-2.4667 -3.7943,-4.8 -5.8357,-7.0667 L 25.4282,18.822 c 0,-0.0444 -0.0222,-0.0889 -0.0444,-0.1111 -0.0443,-0.0444 -0.0887,-0.0667 -0.1331,-0.0889 l -0.0666,-0.0666 c -0.0222,-0.0223 -0.0222,-0.0223 -0.0443,-0.0445 -0.0666,-0.1333 -0.2219,-0.2222 -0.3772,-0.1333 -0.6213,0.3111 -1.1982,0.7778 -1.753,1.2222 -0.7322,0.5778 -1.4644,1.1556 -2.1523,1.8 -0.2884,0.2667 -0.5547,0.5333 -0.7766,0.8222 -0.1109,0.1556 -0.0222,0.2889 0.111,0.3556 -0.4882,0.4889 -0.9763,0.9778 -1.4645,1.4889 -0.0444,0.0444 -0.0666,0.1111 -0.0666,0.1777 0,0.0667 0.0444,0.1334 0.0888,0.1556 l 0.8654,0.6667 c 0,0 0,0 0,0.0222 1.2203,1.2222 3.3726,2.8889 5.6581,4.6889 0.3328,0.2666 0.6878,0.5333 1.0207,0.8 0.1553,0.1778 0.3106,0.3778 0.4437,0.5555 0.0666,0.0889 0.2219,0.1111 0.3107,0.0445 0.0444,0.0444 0.1109,0.0889 0.1553,0.1333 0.0444,0.0222 0.0888,0.0445 0.1331,0.0445 0.0666,0 0.1332,-0.0223 0.1776,-0.0889 0.0221,-0.0445 0.0443,-0.0889 0.0443,-0.1334 0.0222,0 0.0222,0.0223 0.0444,0.0223 0.0666,0 0.1331,-0.0223 0.1775,-0.0667 l 4.0384,-4.4222 c 0.1109,-0.1111 0.0887,-0.2667 0,-0.3556 z M 20.1917,24.7776 c 0.0222,0.0444 0.0443,0.0666 0.0887,0.1111 0.466,0.4 0.9541,0.8 1.4645,1.2444 l -2.0414,-1.5555 c 0,0 -0.1331,-0.0889 -0.1997,-0.1334 -0.0444,-0.0222 -0.0887,-0.0666 -0.1331,-0.0888 L 19.2154,24.222 c 0.0222,-0.0222 0.0221,-0.0222 0.0443,-0.0444 0.0222,-0.0222 0.0222,-0.0222 0.0444,-0.0445 0.0222,-0.0222 0.0666,-0.0666 0.0888,-0.0889 0.6878,-0.6888 1.8638,-1.8444 2.4629,-2.4222 -0.6435,0.6445 -1.9304,2.5334 -1.6641,3.1556 z m 6.9672,5.5111 -1.6863,-1.2889 c -0.6657,-0.6889 -1.3535,-1.3556 -2.0858,-2 0.9098,0.6889 1.6864,1.2889 1.7973,1.4 0.8876,0.7778 0.8432,0.6444 1.4423,1.1556 l 0.7322,0.5333 c -0.0443,0.0667 -0.1109,0.1333 -0.1997,0.2 z m 0.4438,0.3333 -0.0444,-0.0222 c 0.0666,-0.0444 0.1332,-0.0889 0.1997,-0.1556 z"
         fill="#6965db"
         id="path1" /><path
         d="M 0.976313,4.6003 C 1.02069,4.88919 1.08726,5.17808 1.13164,5.44475 c 0.26626,1.46667 0.53253,2.8 1.02068,3.8 l 0.1997,0.75555 c 0.06657,0.2889 0.17751,0.6444 0.28845,0.7333 1.13163,1 2.86235,2.4889 4.72621,3.9111 0.08875,0.0667 0.19969,0.0667 0.28845,0 0,0 0,0.0223 0.02219,0.0223 0.04438,0.0444 0.08875,0.0666 0.15532,0.0666 0.06656,0 0.13313,-0.0222 0.17751,-0.0666 2.37415,-2.6445 4.14925,-4.82225 5.41405,-6.64447 0.0888,-0.08889 0.1109,-0.22222 0.1109,-0.33333 0.0888,-0.08889 0.1554,-0.20001 0.2441,-0.26667 0.0888,-0.08889 0.0888,-0.24445 0,-0.31111 L 13.757,7.08919 c 0,-0.04444 -0.0221,-0.11111 -0.0665,-0.13333 -0.5547,-0.53334 -0.9541,-0.91111 -1.3757,-1.31111 -0.7323,-0.68889 -1.4867,-1.4 -3.08427,-3 L 9.20834,2.62253 C 9.18615,2.60031 9.16397,2.57808 9.11959,2.57808 8.67581,2.42253 7.76607,2.26697 6.63445,2.06697 4.9481,1.77808 2.66266,1.37808 0.599109,0.755859 c 0,0 -0.133136,2e-6 -0.155324,0.022224 C 0.421596,0.800305 0.39941,0.822528 0.377221,0.84475 0.355032,0.866973 0.33284,0.889193 0.199707,0.933638 c 0.022189,0 0.022191,0 0.04438,0 H 0.199707 C 0.221896,1.06697 0.2219,1.15586 0.266277,1.31141 c 0,0.04445 0.088754,0.4 0.088754,0.44445 z M 13.2911,7.22253 13.0248,6.95586 c 0.0666,0.08889 0.1553,0.15556 0.2663,0.26667 z m -2.818,3.73337 c -0.0222,0.0222 -0.0222,0.0222 -0.0444,0.0444 0,-0.0222 0.0222,-0.0444 0.0444,-0.0444 z M 8.85332,2.95586 C 8.98645,3.08919 9.54117,3.62253 9.67431,3.73364 9.0974,3.46697 7.65513,2.80031 6.98947,2.57808 7.65513,2.71142 8.56487,2.84475 8.85332,2.95586 Z M 1.24258,1.84475 C 1.57541,2.42253 1.84168,4.42253 2.10794,6.37809 1.95262,5.75586 1.84168,5.13364 1.70855,4.55586 1.50885,3.53364 1.30915,2.62253 1.04288,1.82253 c 0.04438,0 0.11095,0 0.1997,0.02222 z M 1.10945,1.37808 c -0.08876,0 -0.177514,-0.02222 -0.24408,-0.02222 0,-0.02222 -2e-6,-0.04445 -0.02219,-0.04445 0.110943,0 0.17751,0.02223 0.26627,0.06667 z M 0.244087,1.55586 c 0,-0.02222 0,-0.02222 0,0 z"
         fill="#6965db"
         id="path2" /><path
         d="m 31.4639,1.0669 c 0.0222,-0.088884 -0.4438,-0.488885 -0.2885,-0.511107 0.3329,-0.022222 0.3329,-0.5333321 0,-0.5333321 C 30.7317,0.0446832 30.2657,0.155793 29.8441,0.22246 29.0675,0.378015 28.2687,0.53357 27.4921,0.711348 25.7392,1.08913 24.0085,1.48913 22.2777,1.95579 21.7452,2.11135 21.1461,2.22246 20.6358,2.48913 20.4583,2.57801 20.4805,2.75579 20.5692,2.8669 20.5248,2.88912 20.5026,2.88913 20.4583,2.91135 20.3029,2.93357 20.1698,2.95579 20.0145,2.97801 19.8814,3.00024 19.8148,3.11135 19.837,3.24468 c 0,0.02223 0.0222,0.06667 0.0222,0.08889 -0.932,1.24445 -1.9748,2.55555 -3.1065,3.95555 -1.1094,1.28889 -2.2854,2.64445 -3.4614,4.04448 -3.7499,4.4 -7.98795,9.4 -12.669782,13.8 -0.088755,0.0889 -0.088755,0.2222 0,0.3111 0.022189,0.0222 0.044381,0.0444 0.06657,0.0444 -0.066566,0.0667 -0.133131,0.1111 -0.199697,0.1778 -0.044378,0.0444 -0.066571,0.0889 -0.066571,0.1333 -0.022188,0.0223 -0.066565,0.0667 -0.088753,0.1112 -0.088755,0.0888 -0.088754,0.2444 0.02219,0.3111 0.088755,0.0888 0.244075,0.0888 0.310641,-0.0223 0.022189,-0.0222 0.022191,-0.0444 0.04438,-0.0444 0.133133,-0.1333 0.355012,-0.1333 0.488152,0 0.26626,0.2889 0.53253,0.5778 0.7766,0.8222 L 1.42031,26.5113 C 1.33156,26.4225 1.17624,26.4447 1.10967,26.5336 1.02092,26.6225 1.04311,26.778 1.13186,26.8447 l 5.90221,4.9555 c 0.04438,0.0445 0.08875,0.0445 0.15532,0.0445 0.06657,0 0.11095,-0.0222 0.15533,-0.0667 0.04437,-0.0444 0.08875,-0.0889 0.13313,-0.1333 0.02219,0.0222 0.06656,0.0222 0.08875,0.0222 0.06657,0 0.11094,-0.0222 0.15532,-0.0667 7.98798,-8.0444 14.42268,-14.1111 21.78938,-19.5333 0.0665,-0.0444 0.0887,-0.1333 0.0887,-0.2 0.0888,0 0.1554,-0.0667 0.1997,-0.1555 1.3535,-4.1556 1.6198,-7.8445 1.7086,-9.66672 V 2.02246 c 0,-0.02222 0.0222,-0.04444 0.0222,-0.06667 C 31.5526,1.91135 31.5526,1.88913 31.5526,1.88913 31.6192,1.62246 31.5748,1.31135 31.4639,1.0669 Z M 17.1743,7.60024 c 0.3551,-0.4 0.7101,-0.82223 1.0651,-1.20001 C 15.954,9.42246 12.1597,14.0669 6.79,19.6002 10.4511,15.5336 14.1345,11.3336 17.1743,7.60024 Z M 4.23829,28.6225 c 0.02219,0 0.06656,0 0.06656,0 -0.02219,0 -0.04437,0 -0.06656,0 z m 2.7514,2.5555 c -0.02219,-0.0222 -0.02219,-0.0222 0,-0.0222 z m 3.30611,-2.8667 c 0.1775,-0.2 0.355,-0.3777 0.5547,-0.5777 0,0 0,0.0222 0.0222,0.0222 -0.1997,0.1778 -0.3772,0.3555 -0.5769,0.5555 z m 0.9098,-0.8888 c 0.1109,-0.1112 0.2218,-0.2667 0.355,-0.4 0,0 0,0 0.0222,-0.0223 1.3091,-1.3555 2.6626,-2.7111 4.0383,-4.0888 l 0.0222,-0.0223 c 0.3328,-0.2666 0.7322,-0.5555 1.0873,-0.8222 -1.8195,1.7111 -3.639,3.4889 -5.525,5.3556 z M 19.8148,5.17802 C 19.0826,6.13357 18.2616,7.40023 17.5737,8.40024 15.3992,11.5558 8.40978,19.2669 8.25446,19.4002 7.16721,20.4447 3.92764,23.5558 1.86409,25.5113 1.81971,25.5558 1.77533,25.6002 1.73096,25.6447 1.62001,25.5113 1.62001,25.3113 1.75315,25.2002 11.6271,15.8891 17.6181,8.13357 20.0367,4.73357 19.9701,4.88913 19.9257,5.02246 19.8148,5.17802 Z m 3.8387,4.55555 C 22.7659,9.22246 22.3443,8.42246 22.5884,7.64468 L 22.655,7.37802 c 0.0221,-0.06667 0.0665,-0.15556 0.1109,-0.22222 0.2441,-0.4 0.5991,-0.73334 0.9985,-0.93334 0.0222,0 0.0444,0 0.0666,-0.02222 C 23.8088,6.15579 23.8088,6.08913 23.8088,6.02246 23.831,5.88913 23.9197,5.80024 24.075,5.80024 c 0.2663,0 1.0873,0.24444 1.3979,0.51111 0.0888,0.06666 0.1775,0.15555 0.2663,0.24444 0.1109,0.13334 0.2884,0.35556 0.3772,0.53334 0.0444,0.02222 0.0888,0.24444 0.1553,0.35555 0.0444,0.17778 0.0888,0.37778 0.0666,0.55556 -0.0222,0.02222 0,0.15556 -0.0222,0.15556 -0.0444,0.28888 -0.1331,0.57777 -0.2885,0.82221 -0.0221,0.02223 -0.0221,0.04445 -0.0443,0.06667 0,0 0,0 -0.0222,0.02222 -0.111,0.17778 -0.2663,0.33334 -0.4216,0.44445 -0.5103,0.35555 -1.0873,0.46667 -1.6642,0.31111 0,0 -0.1553,-0.06667 -0.2218,-0.08889 z M 30.1326,9.0669 c -0.1997,0.82222 -0.4216,1.6667 -0.7101,2.5333 0,0.0223 -0.0222,0.0667 0,0.0889 -0.0443,0 -0.0665,0.0222 -0.1109,0.0445 -1.7529,1.2889 -3.4615,2.6444 -5.17,4.0222 1.4645,-1.3111 2.9289,-2.6444 4.4599,-3.9556 0.4438,-0.4 0.7545,-0.9111 0.8432,-1.4889 l 0.2219,-1.33329 c 0,-0.02222 0,-0.02221 0,-0.04444 0.1109,-0.26666 0.5325,-0.15556 0.466,0.13333 z"
         fill="#6965db"
         id="path3" /></g></g></svg>
